HIERARCHY
ROOT Hips
{
	OFFSET 0.000000 71.427986 0.000000
	CHANNELS 6 Xposition Yposition Zposition Xrotation Yrotation Zrotation
	JOINT Pelvis
	{
		OFFSET 0.000000 0.000000 0.000000
		CHANNELS 3 Xrotation Yrotation Zrotation
		JOINT LeftUpLeg
		{
			OFFSET 6.797100 -2.508499 -1.318700
			CHANNELS 3 Xrotation Yrotation Zrotation
			JOINT LeftLeg
			{
				OFFSET 0.069008 -29.241863 0.690200
				CHANNELS 3 Xrotation Yrotation Zrotation
				JOINT LeftFoot
				{
					OFFSET -0.069008 -29.568123 -0.266800
					CHANNELS 3 Xrotation Yrotation Zrotation
					JOINT LeftToeBase
					{
						OFFSET 3.145500 -8.631000 16.059900
						CHANNELS 3 Xrotation Yrotation Zrotation
						End Site
						{
							OFFSET 0.000000 18.501587 0.000000
						}
					}
				}
			}
			JOINT Left_ShortSleeve
			{
				OFFSET 0.265923 -10.480953 1.153800
				CHANNELS 3 Xrotation Yrotation Zrotation
				End Site
				{
					OFFSET 1.725763 19.823879 0.000000
				}
			}
		}
		JOINT RightUpLeg
		{
			OFFSET -6.797100 -2.508499 -1.318700
			CHANNELS 3 Xrotation Yrotation Zrotation
			JOINT RightLeg
			{
				OFFSET -0.082453 -29.241932 0.688000
				CHANNELS 3 Xrotation Yrotation Zrotation
				JOINT RightFoot
				{
					OFFSET 0.082453 -29.568058 -0.264600
					CHANNELS 3 Xrotation Yrotation Zrotation
					JOINT RightToeBase
					{
						OFFSET -3.115300 -8.682800 16.113400
						CHANNELS 3 Xrotation Yrotation Zrotation
						End Site
						{
							OFFSET 0.000000 18.567114 0.000000
						}
					}
				}
			}
			JOINT Right_ShortSleeve
			{
				OFFSET -0.265923 -10.480953 1.153800
				CHANNELS 3 Xrotation Yrotation Zrotation
				End Site
				{
					OFFSET -1.725766 19.823910 0.000000
				}
			}
		}
	}
	JOINT Spine
	{
		OFFSET 0.000000 13.368103 0.470500
		CHANNELS 3 Xrotation Yrotation Zrotation
		JOINT Spine1
		{
			OFFSET 0.147000 13.837402 0.538800
			CHANNELS 3 Xrotation Yrotation Zrotation
			JOINT Spine2
			{
				OFFSET 0.168000 16.242897 -1.435500
				CHANNELS 3 Xrotation Yrotation Zrotation
				JOINT Neck
				{
					OFFSET 0.217200 18.631500 -1.679100
					CHANNELS 3 Xrotation Yrotation Zrotation
					JOINT Head
					{
						OFFSET 0.000000 6.599396 1.385900
						CHANNELS 3 Xrotation Yrotation Zrotation
						JOINT Hat
						{
							OFFSET -0.532200 27.220596 -10.096100
							CHANNELS 3 Xrotation Yrotation Zrotation
							End Site
							{
								OFFSET 0.000000 22.029861 0.000000
							}
						}
						JOINT HairD
						{
							OFFSET -10.777400 17.437393 -1.325900
							CHANNELS 3 Xrotation Yrotation Zrotation
							JOINT HairD1
							{
								OFFSET -3.290299 -11.051193 1.062200
								CHANNELS 3 Xrotation Yrotation Zrotation
								End Site
								{
									OFFSET 0.000000 11.579437 0.000000
								}
							}
						}
						JOINT HairB
						{
							OFFSET -10.777400 17.437393 1.467900
							CHANNELS 3 Xrotation Yrotation Zrotation
							JOINT HairB1
							{
								OFFSET -1.561200 -12.956299 3.590200
								CHANNELS 3 Xrotation Yrotation Zrotation
								End Site
								{
									OFFSET 0.000000 13.534866 0.000000
								}
							}
						}
						JOINT HairA
						{
							OFFSET 9.713100 17.437393 1.467900
							CHANNELS 3 Xrotation Yrotation Zrotation
							JOINT HairA1
							{
								OFFSET 1.561200 -12.956299 3.590200
								CHANNELS 3 Xrotation Yrotation Zrotation
								End Site
								{
									OFFSET 0.000000 13.534866 0.000000
								}
							}
						}
						JOINT HairC
						{
							OFFSET 9.713100 17.437393 -1.325900
							CHANNELS 3 Xrotation Yrotation Zrotation
							JOINT HairC1
							{
								OFFSET 3.290300 -11.051193 1.062200
								CHANNELS 3 Xrotation Yrotation Zrotation
								End Site
								{
									OFFSET 0.000000 11.579437 0.000000
								}
							}
						}
					}
				}
				JOINT LeftShoulder
				{
					OFFSET 5.101800 15.108002 -2.763700
					CHANNELS 3 Xrotation Yrotation Zrotation
					JOINT LeftArm
					{
						OFFSET 9.825497 2.506317 -1.597400
						CHANNELS 3 Xrotation Yrotation Zrotation
						JOINT LeftForeArm
						{
							OFFSET 21.966244 0.000000 0.000000
							CHANNELS 3 Xrotation Yrotation Zrotation
							JOINT LeftHand
							{
								OFFSET 33.879036 0.000000 0.000000
								CHANNELS 3 Xrotation Yrotation Zrotation
								JOINT LeftHandThumb1
								{
									OFFSET 6.715286 -2.359680 3.363841
									CHANNELS 3 Xrotation Yrotation Zrotation
									JOINT LeftHandThumb2
									{
										OFFSET 2.507072 -1.447464 1.447461
										CHANNELS 3 Xrotation Yrotation Zrotation
										JOINT LeftHandThumb3
										{
											OFFSET 2.898338 -1.673355 1.673357
											CHANNELS 3 Xrotation Yrotation Zrotation
											End Site
											{
												OFFSET -0.295959 3.727692 -0.131651
											}
										}
									}
								}
								JOINT LeftHandIndex1
								{
									OFFSET 14.190811 -0.254547 3.840278
									CHANNELS 3 Xrotation Yrotation Zrotation
									JOINT LeftHandIndex2
									{
										OFFSET 3.551727 0.000000 -0.000000
										CHANNELS 3 Xrotation Yrotation Zrotation
										JOINT LeftHandIndex3
										{
											OFFSET 2.894196 0.000000 0.000000
											CHANNELS 3 Xrotation Yrotation Zrotation
											End Site
											{
												OFFSET -1.000603 2.690872 0.366626
											}
										}
									}
								}
								JOINT LeftHandMiddle1
								{
									OFFSET 13.776489 0.000000 0.000000
									CHANNELS 3 Xrotation Yrotation Zrotation
									JOINT LeftHandMiddle2
									{
										OFFSET 3.438232 0.000000 0.000000
										CHANNELS 3 Xrotation Yrotation Zrotation
										JOINT LeftHandMiddle3
										{
											OFFSET 3.691551 0.000000 0.000000
											CHANNELS 3 Xrotation Yrotation Zrotation
											End Site
											{
												OFFSET -1.082298 3.499527 0.457670
											}
										}
									}
								}
								JOINT LeftHandRing1
								{
									OFFSET 13.966164 -0.268127 -3.067488
									CHANNELS 3 Xrotation Yrotation Zrotation
									JOINT LeftHandRing2
									{
										OFFSET 3.162567 0.000000 0.000000
										CHANNELS 3 Xrotation Yrotation Zrotation
										JOINT LeftHandRing3
										{
											OFFSET 3.324348 0.000000 0.000000
											CHANNELS 3 Xrotation Yrotation Zrotation
											End Site
											{
												OFFSET -0.861900 3.184998 0.405154
											}
										}
									}
								}
								JOINT LeftHandPinky1
								{
									OFFSET 13.131393 -0.168503 -5.746925
									CHANNELS 3 Xrotation Yrotation Zrotation
									JOINT LeftHandPinky2
									{
										OFFSET 2.849182 0.000000 0.000000
										CHANNELS 3 Xrotation Yrotation Zrotation
										JOINT LeftHandPinky3
										{
											OFFSET 2.805038 0.000000 0.000000
											CHANNELS 3 Xrotation Yrotation Zrotation
											End Site
											{
												OFFSET -0.882500 2.642609 0.325652
											}
										}
									}
								}
							}
							JOINT Left_Sleeve
							{
								OFFSET 6.592125 -0.646545 0.805568
								CHANNELS 3 Xrotation Yrotation Zrotation
								End Site
								{
									OFFSET -0.000179 20.275787 -0.000000
								}
							}
						}
					}
				}
				JOINT RightShoulder
				{
					OFFSET -5.731700 15.108002 -2.763700
					CHANNELS 3 Xrotation Yrotation Zrotation
					JOINT RightArm
					{
						OFFSET -9.825497 2.506317 -1.597400
						CHANNELS 3 Xrotation Yrotation Zrotation
						JOINT RightForeArm
						{
							OFFSET -21.966242 0.000000 0.000000
							CHANNELS 3 Xrotation Yrotation Zrotation
							JOINT RightHand
							{
								OFFSET -33.879032 0.000000 0.000000
								CHANNELS 3 Xrotation Yrotation Zrotation
								JOINT RightHandThumb1
								{
									OFFSET -6.715286 -2.359680 3.363841
									CHANNELS 3 Xrotation Yrotation Zrotation
									JOINT RightHandThumb2
									{
										OFFSET -2.507072 -1.447464 1.447461
										CHANNELS 3 Xrotation Yrotation Zrotation
										JOINT RightHandThumb3
										{
											OFFSET -2.898338 -1.673355 1.673357
											CHANNELS 3 Xrotation Yrotation Zrotation
											End Site
											{
												OFFSET 0.295959 3.727692 -0.131651
											}
										}
									}
								}
								JOINT RightHandIndex1
								{
									OFFSET -14.190811 -0.254547 3.840278
									CHANNELS 3 Xrotation Yrotation Zrotation
									JOINT RightHandIndex2
									{
										OFFSET -3.551727 0.000000 -0.000000
										CHANNELS 3 Xrotation Yrotation Zrotation
										JOINT RightHandIndex3
										{
											OFFSET -2.894196 0.000000 0.000000
											CHANNELS 3 Xrotation Yrotation Zrotation
											End Site
											{
												OFFSET 1.000603 2.690872 0.366626
											}
										}
									}
								}
								JOINT RightHandMiddle1
								{
									OFFSET -13.776489 0.000000 0.000000
									CHANNELS 3 Xrotation Yrotation Zrotation
									JOINT RightHandMiddle2
									{
										OFFSET -3.438232 0.000000 0.000000
										CHANNELS 3 Xrotation Yrotation Zrotation
										JOINT RightHandMiddle3
										{
											OFFSET -3.691551 0.000000 0.000000
											CHANNELS 3 Xrotation Yrotation Zrotation
											End Site
											{
												OFFSET 1.082298 3.499527 0.457670
											}
										}
									}
								}
								JOINT RightHandRing1
								{
									OFFSET -13.966164 -0.268127 -3.067488
									CHANNELS 3 Xrotation Yrotation Zrotation
									JOINT RightHandRing2
									{
										OFFSET -3.162567 0.000000 0.000000
										CHANNELS 3 Xrotation Yrotation Zrotation
										JOINT RightHandRing3
										{
											OFFSET -3.324348 0.000000 0.000000
											CHANNELS 3 Xrotation Yrotation Zrotation
											End Site
											{
												OFFSET 0.861900 3.184998 0.405154
											}
										}
									}
								}
								JOINT RightHandPinky1
								{
									OFFSET -13.131393 -0.168503 -5.746925
									CHANNELS 3 Xrotation Yrotation Zrotation
									JOINT RightHandPinky2
									{
										OFFSET -2.849182 0.000000 0.000000
										CHANNELS 3 Xrotation Yrotation Zrotation
										JOINT RightHandPinky3
										{
											OFFSET -2.805038 0.000000 0.000000
											CHANNELS 3 Xrotation Yrotation Zrotation
											End Site
											{
												OFFSET 0.882500 2.642609 0.325652
											}
										}
									}
								}
							}
							JOINT Right_Sleeve
							{
								OFFSET -6.592125 -0.646545 0.805568
								CHANNELS 3 Xrotation Yrotation Zrotation
								End Site
								{
									OFFSET 0.000179 20.275787 -0.000000
								}
							}
						}
					}
				}
				JOINT Bind_Right_JacketString
				{
					OFFSET -3.534800 11.969597 7.200700
					CHANNELS 3 Xrotation Yrotation Zrotation
					JOINT Bind_Right_JacketString1
					{
						OFFSET -0.319900 -6.102600 2.794100
						CHANNELS 3 Xrotation Yrotation Zrotation
						End Site
						{
							OFFSET 0.000000 6.719452 0.000000
						}
					}
				}
				JOINT Bind_Left_JacketString
				{
					OFFSET 2.904800 11.969597 7.200700
					CHANNELS 3 Xrotation Yrotation Zrotation
					JOINT Bind_Left_JacketString1
					{
						OFFSET 0.364800 -5.904503 3.186800
						CHANNELS 3 Xrotation Yrotation Zrotation
						End Site
						{
							OFFSET 0.000000 6.719513 0.000000
						}
					}
				}
				JOINT HairE
				{
					OFFSET 5.915200 17.612701 -11.592200
					CHANNELS 3 Xrotation Yrotation Zrotation
					JOINT HairE1
					{
						OFFSET 0.289200 -7.171898 -1.284500
						CHANNELS 3 Xrotation Yrotation Zrotation
						End Site
						{
							OFFSET 0.000000 7.291756 0.000000
						}
					}
				}
				JOINT HairF
				{
					OFFSET -0.864800 17.612701 -11.592200
					CHANNELS 3 Xrotation Yrotation Zrotation
					JOINT HairF1
					{
						OFFSET 0.000000 -14.087097 -2.127501
						CHANNELS 3 Xrotation Yrotation Zrotation
						End Site
						{
							OFFSET 0.000000 14.246841 0.000000
						}
					}
				}
				JOINT HairG
				{
					OFFSET -8.087700 17.612701 -11.592200
					CHANNELS 3 Xrotation Yrotation Zrotation
					JOINT HairG1
					{
						OFFSET -0.293600 -6.081398 -0.910100
						CHANNELS 3 Xrotation Yrotation Zrotation
						End Site
						{
							OFFSET 0.000000 6.156120 0.000000
						}
					}
				}
			}
		}
	}
	JOINT Pouch
	{
		OFFSET 0.000000 4.394501 10.847300
		CHANNELS 3 Xrotation Yrotation Zrotation
		End Site
		{
			OFFSET 0.000000 21.880577 0.000000
		}
	}
	JOINT Bag
	{
		OFFSET -13.229000 4.813004 -0.593300
		CHANNELS 3 Xrotation Yrotation Zrotation
		End Site
		{
			OFFSET 0.000000 21.880577 0.000000
		}
	}
	JOINT OccupyGuyFacialAnim_Joint
	{
		OFFSET 1.000000 -70.206398 -1.655000
		CHANNELS 3 Xrotation Yrotation Zrotation
		End Site
		{
			OFFSET 0.000000 21.880577 0.000000
		}
	}
}
MOTION
Frames: 4
Frame Time: 0.033333
-0.757868 64.319771 1.133210 9.021223 -35.283282 2.274406 0.000000 -0.000001 0.000000 -44.283528 5.429477 21.708419 41.191348 -5.090123 -2.215903 -4.881413 0.744235 -8.643125 -0.000000 0.000002 -0.000000 -0.000001 -0.000001 -0.000001 -17.475386 -11.893947 -18.419796 45.246803 -8.636747 -2.929821 -19.875864 -5.136503 23.273567 -0.000001 0.000002 -0.000000 -0.000000 0.000003 -0.000000 4.116319 4.150445 4.483308 2.230885 1.589076 0.860509 2.196369 1.665536 0.808230 -1.935443 3.695289 -0.661192 5.162821 18.690254 -7.403653 0.000001 -0.000000 -0.000000 0.000001 -0.000000 -0.000000 0.000001 -0.000000 -0.000000 0.000001 -0.000000 -0.000000 0.000001 -0.000000 -0.000000 0.000001 -0.000000 -0.000000 0.000001 -0.000000 -0.000000 0.000001 -0.000000 -0.000000 0.000001 -0.000000 -0.000000 8.613366 -11.681974 -2.879733 -49.485868 -1.994529 -44.042982 0.000040 -106.004782 0.000047 14.693222 1.385415 4.493960 -10.355837 -18.164531 -0.612221 10.166220 44.439191 3.473514 0.000000 0.000001 -0.000001 -1.623587 2.464357 -39.970107 4.432913 5.677159 -75.949880 -0.000000 0.000003 -0.000001 2.431946 7.055185 -53.394078 4.432917 5.677181 -75.949866 -0.000004 0.000002 -0.000001 6.551725 9.294118 -62.102792 5.321229 5.827113 -84.795405 0.000004 0.000000 -0.000001 14.702276 10.907177 -74.390295 5.247201 5.819944 -84.066064 -0.000004 -0.000001 0.000003 0.000002 -0.000001 0.000002 4.720333 14.118463 -1.054175 -49.136173 29.769239 70.987618 0.000121 111.725427 -0.000115 2.246861 10.553212 0.371494 -11.269554 20.282848 1.210506 10.083109 -46.337731 -3.955826 -0.000002 0.000000 0.000000 -1.909771 -1.536837 39.260047 3.529744 -4.518914 75.975712 0.000000 0.000000 0.000000 1.887737 -5.985912 52.719829 3.529755 -4.518931 75.975705 -0.000000 -0.000000 0.000001 5.826221 -8.180305 61.423106 4.235973 -4.638138 84.805316 0.000001 -0.000000 -0.000000 13.716891 -9.803644 73.678897 4.177139 -4.632423 84.077320 -0.000001 0.000000 0.000002 0.000000 0.000001 -0.000001 0.000000 0.000001 0.000000 0.000000 0.000001 0.000000 0.000000 0.000001 0.000000 0.000000 0.000001 0.000000 0.000000 0.000001 0.000000 0.000000 0.000001 0.000000 0.000000 0.000001 0.000000 0.000000 0.000001 0.000000 0.000000 0.000001 0.000000 0.000000 0.000001 0.000000 0.000000 -0.000001 0.000000 0.000000 -0.000001 0.000000 0.000000 -0.000001 0.000000 
-0.628562 64.511986 1.620770 9.805227 -34.804069 2.562325 -0.000000 -0.000002 0.000001 -44.610469 5.699208 21.520533 40.824509 -6.066250 -2.464849 -5.149379 0.725066 -8.011008 -0.000000 -0.000000 -0.000000 0.000002 0.000001 -0.000000 -16.275557 -12.399722 -18.754825 42.217160 -9.077911 -2.557476 -18.787132 -3.169805 24.920854 -0.000000 0.000000 -0.000000 -0.000001 0.000002 -0.000000 3.942801 4.474767 4.152797 2.197144 1.826672 0.873083 2.161433 1.904517 0.820947 -2.386753 3.823561 -1.944584 4.380163 17.915617 -5.118303 0.000001 0.000000 -0.000000 0.000001 0.000000 -0.000000 0.000001 0.000000 -0.000000 0.000001 0.000000 -0.000000 0.000001 0.000000 -0.000000 0.000001 0.000000 -0.000000 0.000001 0.000000 -0.000000 0.000001 0.000000 -0.000000 0.000001 0.000000 -0.000000 7.726313 -11.842707 -5.165500 -47.457275 -2.861723 -43.088071 -0.000066 -109.030774 -0.000068 16.056904 1.926638 0.590772 -9.592581 -16.327204 0.279396 10.166227 44.439202 3.473528 -0.000002 0.000002 -0.000000 -0.088549 2.954526 -43.683684 4.760231 5.748798 -79.237100 -0.000003 0.000003 -0.000003 3.657196 7.853912 -57.180237 4.741938 5.745327 -79.054269 -0.000001 -0.000000 0.000001 7.974282 9.666555 -65.912282 5.631332 5.846960 -87.843999 -0.000000 0.000000 -0.000003 16.440200 10.591899 -78.116416 5.556328 5.843671 -87.107561 0.000004 -0.000003 -0.000001 -0.000000 -0.000001 0.000001 4.120915 12.725559 1.937365 -41.442436 31.061597 65.495954 0.000013 113.671273 -0.000019 3.166862 10.422742 -0.448389 -9.684611 16.364749 -0.641156 10.083110 -46.337714 -3.955810 0.000001 0.000001 0.000000 0.912354 -1.933103 45.281770 3.948703 -4.603068 81.240654 0.000001 -0.000000 0.000000 4.101388 -7.347681 58.829341 3.915749 -4.597893 80.829620 0.000001 0.000000 -0.000002 8.497949 -8.872618 67.592467 4.616645 -4.657001 89.500893 0.000002 -0.000004 -0.000001 16.934378 -9.296774 79.744917 4.549080 -4.655921 88.668505 -0.000003 -0.000000 0.000000 -0.000001 0.000004 0.000001 -0.000000 0.000001 -0.000000 0.000001 -0.000001 0.000001 -0.000000 0.000001 -0.000000 -0.000000 0.000001 -0.000000 -0.000000 0.000001 -0.000000 0.000001 -0.000001 0.000001 -0.000000 0.000001 -0.000000 -0.000000 0.000001 -0.000000 -0.000000 0.000001 -0.000000 0.000001 -0.000001 0.000001 -0.000000 -0.000002 0.000001 -0.000000 -0.000002 0.000001 -0.000000 -0.000002 0.000001 
-0.151910 64.731331 2.287640 11.481333 -35.590360 3.731947 -0.000001 -0.000000 -0.000000 -45.320634 6.358784 21.258491 40.803919 -5.519156 -2.889435 -5.683535 0.706380 -7.238526 0.000000 -0.000000 0.000000 -0.000000 -0.000002 -0.000000 -15.549701 -12.091867 -18.625280 37.876654 -9.633127 -3.114429 -17.474110 -2.506226 25.862663 0.000001 0.000002 -0.000000 -0.000001 0.000001 -0.000000 3.904564 4.949863 3.618057 2.303649 2.174716 0.879777 2.263242 2.254957 0.835130 -3.856333 4.189812 -3.641630 3.666070 17.601225 -3.066220 0.000002 0.000000 -0.000000 0.000002 0.000000 -0.000000 0.000002 0.000000 -0.000000 0.000002 0.000000 -0.000000 0.000002 0.000000 -0.000000 0.000002 0.000000 -0.000000 0.000002 0.000000 -0.000000 0.000002 0.000000 -0.000000 0.000002 0.000000 -0.000000 7.042754 -10.472364 -6.116607 -52.258604 -4.460350 -40.962198 -0.000039 -112.139166 -0.000050 14.645688 1.737068 -1.604520 -8.069865 -12.345510 2.084234 10.166221 44.439202 3.473534 -0.000002 0.000004 -0.000002 2.911468 3.077338 -49.853827 5.300965 5.825211 -84.596093 0.000000 0.000000 -0.000002 6.185169 9.015551 -63.437363 5.239995 5.819165 -83.994900 -0.000001 0.000000 0.000001 10.879019 10.082289 -72.226436 6.118410 5.844983 -92.623307 0.000001 0.000003 0.000001 19.734129 9.699562 -84.284261 6.032698 5.848251 -91.781924 -0.000002 0.000001 0.000003 0.000001 -0.000000 0.000003 3.858311 12.304516 1.803166 -39.492850 33.253623 60.921606 0.000150 112.826782 -0.000132 2.199266 10.036002 -1.231497 -7.670700 10.633662 -3.065400 10.083124 -46.337725 -3.955800 -0.000003 -0.000001 -0.000000 4.240267 -1.077315 50.080296 4.274144 -4.641400 85.277377 0.000002 -0.000001 -0.000002 6.923128 -8.561771 63.658592 4.188621 -4.633580 84.219456 0.000001 0.000002 -0.000002 12.053290 -9.483414 72.564080 4.866430 -4.652478 92.578133 -0.000000 0.000001 0.000000 20.909051 -8.585835 84.692167 4.771478 -4.655782 91.407909 0.000004 -0.000002 -0.000001 -0.000002 0.000001 0.000001 -0.000000 0.000001 -0.000000 -0.000000 0.000001 -0.000000 -0.000000 0.000001 0.000000 -0.000000 0.000001 0.000000 -0.000000 0.000001 -0.000000 -0.000000 0.000001 -0.000000 -0.000000 0.000001 0.000000 -0.000000 0.000001 0.000000 -0.000000 0.000001 -0.000000 -0.000000 0.000001 -0.000000 -0.000001 -0.000000 -0.000000 -0.000001 -0.000000 -0.000000 -0.000001 -0.000000 -0.000000 
0.741001 64.658768 2.878485 14.018205 -37.508336 6.082997 0.000000 -0.000001 -0.000000 -47.120375 7.256525 20.860088 42.151112 -3.738923 -3.430328 -6.737842 0.717957 -6.401562 0.000000 0.000002 -0.000000 -0.000001 -0.000002 -0.000000 -17.820372 -10.569472 -18.691298 36.803115 -10.249460 -4.271622 -17.004721 -5.183679 24.140156 -0.000000 -0.000003 0.000001 0.000001 0.000000 -0.000000 4.028550 5.473466 2.943771 2.616439 2.565309 0.841290 2.568201 2.649554 0.817247 -5.675486 4.481775 -4.801610 2.818808 17.790252 -2.122779 0.000000 -0.000000 -0.000001 0.000000 -0.000000 -0.000001 0.000000 -0.000000 -0.000001 0.000000 -0.000000 -0.000001 0.000000 -0.000000 -0.000001 0.000000 -0.000000 -0.000001 0.000000 -0.000000 -0.000001 0.000000 -0.000000 -0.000001 0.000000 -0.000000 -0.000001 6.528644 -8.045817 -5.597442 -64.110669 -8.425569 -40.950655 0.000056 -112.843386 0.000058 12.394060 1.240266 1.157577 -6.770841 -8.566708 3.659232 10.166235 44.439205 3.473517 -0.000003 0.000001 -0.000001 4.681116 2.082670 -50.814996 5.369235 5.831235 -85.268355 0.000001 0.000002 -0.000001 7.695438 9.681999 -64.342964 5.261651 5.821388 -84.208473 0.000001 -0.000001 -0.000001 13.012273 10.602537 -73.273614 6.114309 5.845174 -92.583078 0.000003 0.000000 0.000001 22.105344 9.634942 -85.432300 5.994852 5.849303 -91.410607 0.000003 -0.000001 0.000001 0.000000 -0.000000 -0.000003 3.831319 13.485182 -1.652970 -45.820283 35.772416 57.759563 0.000175 108.580958 -0.000196 -0.343461 10.085294 -1.946029 -6.623654 7.252248 -4.368085 9.528701 -41.763701 -3.810628 -0.000000 -0.000001 0.000001 4.491738 0.854615 41.969313 3.683168 -4.554375 77.915253 -0.000000 -0.000001 0.000005 6.439700 -9.126439 55.299599 3.557985 -4.525874 76.333696 0.000002 0.000000 0.000003 12.640423 -11.237242 64.538601 4.193565 -4.634093 84.280716 0.000003 -0.000000 -0.000000 21.749298 -11.095474 77.301137 4.040456 -4.616253 82.382033 -0.000002 0.000001 0.000001 0.000003 0.000003 -0.000000 -0.000001 0.000001 -0.000000 -0.000000 0.000001 -0.000001 -0.000001 0.000001 -0.000000 -0.000001 0.000001 -0.000000 -0.000001 0.000001 -0.000000 -0.000000 0.000001 -0.000000 -0.000001 0.000001 -0.000000 -0.000001 0.000001 -0.000000 -0.000001 0.000001 -0.000000 -0.000000 0.000001 -0.000000 0.000000 -0.000001 -0.000000 0.000000 -0.000001 -0.000000 0.000000 -0.000001 -0.000000 
